<svg viewBox="0 0 56.693 56.693" xml:space="preserve" xmlns="http://www.w3.org/2000/svg"><path d="M30.071 27.101v-.077a2.031 2.031 0 0 1-.05.077h.05z" fill="#a6a6a6" class="fill-000000"></path><path d="M49.265 4.667H7.145c-2.016 0-3.651 1.596-3.651 3.563v42.613c0 1.966 1.635 3.562 3.651 3.562h42.12c2.019 0 3.654-1.597 3.654-3.562V8.23c0-1.968-1.636-3.563-3.654-3.563zm-30.79 41.637H11.01V23.845h7.465v22.459zm-3.732-25.527h-.05c-2.504 0-4.124-1.725-4.124-3.88 0-2.203 1.67-3.88 4.223-3.88 2.554 0 4.125 1.677 4.175 3.88 0 2.155-1.622 3.88-4.224 3.88zm30.651 25.527h-7.465V34.286c0-3.018-1.08-5.078-3.781-5.078-2.062 0-3.29 1.389-3.831 2.731-.197.479-.245 1.149-.245 1.821v12.543h-7.465s.098-20.354 0-22.459h7.465v3.179c.992-1.53 2.766-3.709 6.729-3.709 4.911 0 8.594 3.211 8.594 10.11v12.88z" fill="#a6a6a6" class="fill-000000"></path></svg>